<?xml version="1.0" encoding="iso-8859-1"?>
<!-- Generator: Adobe Illustrator 19.0.0, SVG Export Plug-In . SVG Version: 6.00 Build 0)  -->
<svg version="1.1" id="Layer_1" xmlns="http://www.w3.org/2000/svg" xmlns:xlink="http://www.w3.org/1999/xlink" x="0px" y="0px"
	 viewBox="0 0 455 455" style="enable-background:new 0 0 455 455; fill: #ca1c24" xml:space="preserve">
<g>
	<path d="M315,157.5C315,70.515,244.485,0,157.5,0C70.515,0,0,70.515,0,157.5c0,32.92,10.106,63.476,27.376,88.749L6.689,308.311
		l62.063-20.687C94.024,304.894,124.58,315,157.5,315C244.485,315,315,244.485,315,157.5z"/>
	<path d="M455,297.5c0-70.533-46.37-130.224-110.284-150.284C344.9,150.63,345,154.058,345,157.5
		c0,25.299-4.962,49.857-14.747,72.992c-9.445,22.331-22.961,42.38-40.171,59.59c-17.21,17.21-37.259,30.725-59.59,40.17
		C207.357,340.039,182.799,345,157.5,345c-3.443,0-6.871-0.114-10.288-0.299C167.267,408.623,226.961,455,297.5,455
		c32.92,0,63.476-10.106,88.749-27.376l62.063,20.687l-20.688-62.062C444.894,360.977,455,330.42,455,297.5z"/>
</g>
<g>
</g>
<g>
</g>
<g>
</g>
<g>
</g>
<g>
</g>
<g>
</g>
<g>
</g>
<g>
</g>
<g>
</g>
<g>
</g>
<g>
</g>
<g>
</g>
<g>
</g>
<g>
</g>
<g>
</g>
</svg>
