<?xml version="1.0" encoding="iso-8859-1"?>
<!-- Generator: Adobe Illustrator 18.0.0, SVG Export Plug-In . SVG Version: 6.00 Build 0)  -->
<!DOCTYPE svg PUBLIC "-//W3C//DTD SVG 1.1//EN" "http://www.w3.org/Graphics/SVG/1.1/DTD/svg11.dtd">
<svg version="1.1" id="Capa_1" xmlns="http://www.w3.org/2000/svg" xmlns:xlink="http://www.w3.org/1999/xlink" x="0px" y="0px"
	 viewBox="0 0 328.668 328.668" style="enable-background:new 0 0 328.668 328.668; fill: #ca1c24" xml:space="preserve">
<g>
	<g>
		<path d="M19.334,216.001h-10c-2.761,0-5,2.239-5,5v74c0,2.761,2.239,5,5,5h10c2.761,0,5-2.239,5-5v-74
			C24.334,218.24,22.095,216.001,19.334,216.001z"/>
		<path d="M79.334,216.001h-10c-2.761,0-5,2.239-5,5v74c0,2.761,2.239,5,5,5h10c2.761,0,5-2.239,5-5v-74
			C84.334,218.24,82.095,216.001,79.334,216.001z"/>
		<path d="M139.334,162.001h-10c-2.761,0-5,2.239-5,5v128c0,2.761,2.239,5,5,5h10c2.761,0,5-2.239,5-5v-128
			C144.334,164.24,142.095,162.001,139.334,162.001z"/>
		<path d="M199.334,120.001h-10c-2.761,0-5,2.239-5,5v170c0,2.761,2.239,5,5,5h10c2.761,0,5-2.239,5-5v-170
			C204.334,122.24,202.095,120.001,199.334,120.001z"/>
		<path d="M259.334,162.001h-10c-2.761,0-5,2.239-5,5v128c0,2.761,2.239,5,5,5h10c2.761,0,5-2.239,5-5v-128
			C264.334,164.24,262.095,162.001,259.334,162.001z"/>
		<path d="M319.334,96.001h-10c-2.761,0-5,2.239-5,5v194c0,2.761,2.239,5,5,5h10c2.761,0,5-2.239,5-5v-194
			C324.334,98.24,322.095,96.001,319.334,96.001z"/>
	</g>
	<path d="M314.334,28.667c-7.904,0-14.334,6.43-14.334,14.334c0,3.025,0.948,5.83,2.554,8.146l-43.781,62.753
		c-1.4-0.457-2.89-0.712-4.439-0.712c-3.394,0-6.51,1.191-8.968,3.169l-37.088-26.785c0.247-1.052,0.39-2.142,0.39-3.268
		c0-7.903-6.43-14.333-14.334-14.333S180,78.4,180,86.304c0,1.308,0.191,2.569,0.52,3.773l-40.188,31.257
		c-1.828-0.847-3.855-1.333-5.999-1.333c-7.896,0-14.32,6.418-14.333,14.31l-36.188,19.3c-2.53-2.238-5.844-3.61-9.479-3.61
		c-5.36,0-10.035,2.961-12.494,7.329l-33.462-5.205c-1.335-6.531-7.125-11.458-14.044-11.458C6.43,140.667,0,147.097,0,155.001
		c0,7.903,6.43,14.333,14.334,14.333c5.36,0,10.035-2.961,12.494-7.33l33.462,5.205c1.335,6.531,7.125,11.458,14.044,11.458
		c7.904,0,14.334-6.43,14.334-14.334c0-0.646-0.058-1.278-0.142-1.903l35.027-18.681c2.629,3.007,6.481,4.918,10.78,4.918
		c7.904,0,14.334-6.43,14.334-14.334c0-2.08-0.455-4.052-1.256-5.838l38.945-30.29c2.282,1.534,5.026,2.432,7.977,2.432
		c3.136,0,6.031-1.024,8.394-2.739l37.51,27.09c-0.148,0.824-0.238,1.668-0.238,2.533c0,7.903,6.43,14.333,14.334,14.333
		s14.334-6.43,14.334-14.333c0-2.697-0.763-5.213-2.064-7.37l44.154-63.287c1.146,0.296,2.339,0.47,3.576,0.47
		c7.904,0,14.334-6.43,14.334-14.333C328.668,35.097,322.238,28.667,314.334,28.667z"/>
</g>
<g>
</g>
<g>
</g>
<g>
</g>
<g>
</g>
<g>
</g>
<g>
</g>
<g>
</g>
<g>
</g>
<g>
</g>
<g>
</g>
<g>
</g>
<g>
</g>
<g>
</g>
<g>
</g>
<g>
</g>
</svg>
